<?xml version="1.0" encoding="UTF-8" standalone="no"?>
<!DOCTYPE svg PUBLIC "-//W3C//DTD SVG 1.1//EN"
 "http://www.w3.org/Graphics/SVG/1.1/DTD/svg11.dtd">
<!-- Generated by graphviz version 2.28.0 (20110507.0327)
 -->
<!-- Title: models_diagram Pages: 1 -->
<svg width="448pt" height="402pt"
 viewBox="0.00 0.00 448.00 402.00" xmlns="http://www.w3.org/2000/svg" xmlns:xlink="http://www.w3.org/1999/xlink">
<g id="graph1" class="graph" transform="scale(1 1) rotate(0) translate(4 398)">
<title>models_diagram</title>
<polygon fill="white" stroke="white" points="-4,5 -4,-398 445,-398 445,5 -4,5"/>
<!-- OauthInfo -->
<g id="node1" class="node"><title>OauthInfo</title>
<polyline fill="none" stroke="black" points="12,-302.5 120,-302.5 "/>
<path fill="none" stroke="black" d="M120,-302.5C126,-302.5 132,-308.5 132,-314.5"/>
<polyline fill="none" stroke="black" points="132,-314.5 132,-381.5 "/>
<path fill="none" stroke="black" d="M132,-381.5C132,-387.5 126,-393.5 120,-393.5"/>
<polyline fill="none" stroke="black" points="120,-393.5 12,-393.5 "/>
<path fill="none" stroke="black" d="M12,-393.5C6,-393.5 0,-387.5 0,-381.5"/>
<polyline fill="none" stroke="black" points="0,-381.5 0,-314.5 "/>
<path fill="none" stroke="black" d="M0,-314.5C0,-308.5 6,-302.5 12,-302.5"/>
<text text-anchor="middle" x="66" y="-378.3" font-family="Times New Roman,serif" font-size="14.00">OauthInfo</text>
<polyline fill="none" stroke="black" points="0,-370.5 132,-370.5 "/>
<text text-anchor="start" x="8" y="-355.3" font-family="Times New Roman,serif" font-size="14.00">atoken :string</text>
<text text-anchor="start" x="8" y="-340.3" font-family="Times New Roman,serif" font-size="14.00">asecret :string</text>
<text text-anchor="start" x="8" y="-325.3" font-family="Times New Roman,serif" font-size="14.00">created_at :datetime</text>
<text text-anchor="start" x="8" y="-310.3" font-family="Times New Roman,serif" font-size="14.00">updated_at :datetime</text>
</g>
<!-- Category -->
<g id="node2" class="node"><title>Category</title>
<polyline fill="none" stroke="black" points="320,-302.5 428,-302.5 "/>
<path fill="none" stroke="black" d="M428,-302.5C434,-302.5 440,-308.5 440,-314.5"/>
<polyline fill="none" stroke="black" points="440,-314.5 440,-381.5 "/>
<path fill="none" stroke="black" d="M440,-381.5C440,-387.5 434,-393.5 428,-393.5"/>
<polyline fill="none" stroke="black" points="428,-393.5 320,-393.5 "/>
<path fill="none" stroke="black" d="M320,-393.5C314,-393.5 308,-387.5 308,-381.5"/>
<polyline fill="none" stroke="black" points="308,-381.5 308,-314.5 "/>
<path fill="none" stroke="black" d="M308,-314.5C308,-308.5 314,-302.5 320,-302.5"/>
<text text-anchor="middle" x="374" y="-378.3" font-family="Times New Roman,serif" font-size="14.00">Category</text>
<polyline fill="none" stroke="black" points="308,-370.5 440,-370.5 "/>
<text text-anchor="start" x="316" y="-355.3" font-family="Times New Roman,serif" font-size="14.00">name :string</text>
<text text-anchor="start" x="316" y="-340.3" font-family="Times New Roman,serif" font-size="14.00">created_at :datetime</text>
<text text-anchor="start" x="316" y="-325.3" font-family="Times New Roman,serif" font-size="14.00">updated_at :datetime</text>
<text text-anchor="start" x="316" y="-310.3" font-family="Times New Roman,serif" font-size="14.00">total :integer</text>
</g>
<!-- WeiboInfo -->
<g id="node3" class="node"><title>WeiboInfo</title>
<polyline fill="none" stroke="black" points="202.5,-114.5 333.5,-114.5 "/>
<path fill="none" stroke="black" d="M333.5,-114.5C339.5,-114.5 345.5,-120.5 345.5,-126.5"/>
<polyline fill="none" stroke="black" points="345.5,-126.5 345.5,-253.5 "/>
<path fill="none" stroke="black" d="M345.5,-253.5C345.5,-259.5 339.5,-265.5 333.5,-265.5"/>
<polyline fill="none" stroke="black" points="333.5,-265.5 202.5,-265.5 "/>
<path fill="none" stroke="black" d="M202.5,-265.5C196.5,-265.5 190.5,-259.5 190.5,-253.5"/>
<polyline fill="none" stroke="black" points="190.5,-253.5 190.5,-126.5 "/>
<path fill="none" stroke="black" d="M190.5,-126.5C190.5,-120.5 196.5,-114.5 202.5,-114.5"/>
<text text-anchor="middle" x="268" y="-250.3" font-family="Times New Roman,serif" font-size="14.00">WeiboInfo</text>
<polyline fill="none" stroke="black" points="190.5,-242.5 345.5,-242.5 "/>
<text text-anchor="start" x="198.5" y="-227.3" font-family="Times New Roman,serif" font-size="14.00">text :text</text>
<text text-anchor="start" x="198.5" y="-212.3" font-family="Times New Roman,serif" font-size="14.00">original_create_at :string</text>
<text text-anchor="start" x="198.5" y="-197.3" font-family="Times New Roman,serif" font-size="14.00">thumbnail_pic_url :string</text>
<text text-anchor="start" x="198.5" y="-182.3" font-family="Times New Roman,serif" font-size="14.00">original_pic_url :string</text>
<text text-anchor="start" x="198.5" y="-167.3" font-family="Times New Roman,serif" font-size="14.00">comments :integer</text>
<text text-anchor="start" x="198.5" y="-152.3" font-family="Times New Roman,serif" font-size="14.00">reposts :integer</text>
<text text-anchor="start" x="198.5" y="-137.3" font-family="Times New Roman,serif" font-size="14.00">created_at :datetime</text>
<text text-anchor="start" x="198.5" y="-122.3" font-family="Times New Roman,serif" font-size="14.00">updated_at :datetime</text>
</g>
<!-- Category&#45;&gt;WeiboInfo -->
<g id="edge2" class="edge"><title>Category&#45;&gt;WeiboInfo</title>
<path fill="none" stroke="black" d="M337.852,-293.8C333.533,-287.445 329.048,-280.844 324.528,-274.192"/>
<polygon fill="black" stroke="black" points="338.004,-294.025 339.903,-304.826 340.815,-298.161 343.625,-302.297 343.625,-302.297 343.625,-302.297 340.815,-298.161 347.347,-299.768 338.004,-294.025 338.004,-294.025"/>
<polygon fill="black" stroke="black" points="324.415,-274.026 322.517,-263.225 321.605,-269.89 318.795,-265.754 318.795,-265.754 318.795,-265.754 321.605,-269.89 315.073,-268.283 324.415,-274.026 324.415,-274.026"/>
</g>
<!-- CategoryWeibo -->
<g id="node5" class="node"><title>CategoryWeibo</title>
<polyline fill="none" stroke="black" points="267,-1 375,-1 "/>
<path fill="none" stroke="black" d="M375,-1C381,-1 387,-7 387,-13"/>
<polyline fill="none" stroke="black" points="387,-13 387,-65 "/>
<path fill="none" stroke="black" d="M387,-65C387,-71 381,-77 375,-77"/>
<polyline fill="none" stroke="black" points="375,-77 267,-77 "/>
<path fill="none" stroke="black" d="M267,-77C261,-77 255,-71 255,-65"/>
<polyline fill="none" stroke="black" points="255,-65 255,-13 "/>
<path fill="none" stroke="black" d="M255,-13C255,-7 261,-1 267,-1"/>
<text text-anchor="middle" x="321" y="-61.8" font-family="Times New Roman,serif" font-size="14.00">CategoryWeibo</text>
<polyline fill="none" stroke="black" points="255,-54 387,-54 "/>
<text text-anchor="start" x="263" y="-38.8" font-family="Times New Roman,serif" font-size="14.00">quantity :integer</text>
<text text-anchor="start" x="263" y="-23.8" font-family="Times New Roman,serif" font-size="14.00">created_at :datetime</text>
<text text-anchor="start" x="263" y="-8.8" font-family="Times New Roman,serif" font-size="14.00">updated_at :datetime</text>
</g>
<!-- Category&#45;&gt;CategoryWeibo -->
<g id="edge4" class="edge"><title>Category&#45;&gt;CategoryWeibo</title>
<path fill="none" stroke="black" d="M374.412,-292.333C373.572,-244.559 369.406,-173.699 354,-114 351.476,-104.22 347.772,-94.1042 343.748,-84.6109"/>
<polygon fill="black" stroke="black" points="374.414,-292.463 370.047,-302.522 374.48,-297.463 374.546,-302.462 374.546,-302.462 374.546,-302.462 374.48,-297.463 379.046,-302.403 374.414,-292.463 374.414,-292.463"/>
<ellipse fill="black" stroke="black" cx="342.078" cy="-80.8111" rx="4.00002" ry="4.00002"/>
</g>
<!-- WeiboInfo&#45;&gt;CategoryWeibo -->
<g id="edge6" class="edge"><title>WeiboInfo&#45;&gt;CategoryWeibo</title>
<path fill="none" stroke="black" d="M298.048,-104.524C300.422,-97.852 302.756,-91.2885 304.974,-85.053"/>
<polygon fill="black" stroke="black" points="298.007,-104.642 290.416,-112.555 296.331,-109.353 294.655,-114.063 294.655,-114.063 294.655,-114.063 296.331,-109.353 298.895,-115.572 298.007,-104.642 298.007,-104.642"/>
<ellipse fill="black" stroke="black" cx="306.375" cy="-81.1153" rx="4.00001" ry="4.00001"/>
</g>
<!-- WeiboUser -->
<g id="node4" class="node"><title>WeiboUser</title>
<polyline fill="none" stroke="black" points="162,-302.5 278,-302.5 "/>
<path fill="none" stroke="black" d="M278,-302.5C284,-302.5 290,-308.5 290,-314.5"/>
<polyline fill="none" stroke="black" points="290,-314.5 290,-381.5 "/>
<path fill="none" stroke="black" d="M290,-381.5C290,-387.5 284,-393.5 278,-393.5"/>
<polyline fill="none" stroke="black" points="278,-393.5 162,-393.5 "/>
<path fill="none" stroke="black" d="M162,-393.5C156,-393.5 150,-387.5 150,-381.5"/>
<polyline fill="none" stroke="black" points="150,-381.5 150,-314.5 "/>
<path fill="none" stroke="black" d="M150,-314.5C150,-308.5 156,-302.5 162,-302.5"/>
<text text-anchor="middle" x="220" y="-378.3" font-family="Times New Roman,serif" font-size="14.00">WeiboUser</text>
<polyline fill="none" stroke="black" points="150,-370.5 290,-370.5 "/>
<text text-anchor="start" x="158" y="-355.3" font-family="Times New Roman,serif" font-size="14.00">screen_name :string</text>
<text text-anchor="start" x="158" y="-340.3" font-family="Times New Roman,serif" font-size="14.00">profile_img_url :string</text>
<text text-anchor="start" x="158" y="-325.3" font-family="Times New Roman,serif" font-size="14.00">created_at :datetime</text>
<text text-anchor="start" x="158" y="-310.3" font-family="Times New Roman,serif" font-size="14.00">updated_at :datetime</text>
</g>
<!-- WeiboUser&#45;&gt;WeiboInfo -->
<g id="edge8" class="edge"><title>WeiboUser&#45;&gt;WeiboInfo</title>
<path fill="none" stroke="black" d="M236.714,-292.68C238.639,-286.423 240.633,-279.942 242.64,-273.419"/>
<polygon fill="black" stroke="black" points="236.696,-292.739 229.454,-300.973 235.225,-297.518 233.755,-302.297 233.755,-302.297 233.755,-302.297 235.225,-297.518 238.056,-303.62 236.696,-292.739 236.696,-292.739"/>
<ellipse fill="black" stroke="black" cx="243.822" cy="-269.577" rx="4.00001" ry="4.00001"/>
</g>
</g>
</svg>
